<?xml version="1.0" standalone="no"?>
<!DOCTYPE svg PUBLIC "-//W3C//DTD SVG 20010904//EN"
 "http://www.w3.org/TR/2001/REC-SVG-20010904/DTD/svg10.dtd">
<svg version="1.0" xmlns="http://www.w3.org/2000/svg"
 width="1024.000000pt" height="1024.000000pt" viewBox="0 0 1024.000000 1024.000000"
 preserveAspectRatio="xMidYMid meet">

<g transform="translate(0.000000,1024.000000) scale(0.100000,-0.100000)"
fill="#000000" stroke="none">
<path d="M7760 10225 c0 -8 4 -15 10 -15 5 0 12 -11 16 -25 3 -14 10 -25 14
-25 4 0 11 -11 14 -25 4 -14 11 -25 16 -25 6 0 10 -6 10 -12 0 -7 9 -24 20
-38 11 -14 20 -33 20 -42 0 -11 8 -18 20 -18 19 0 20 -7 20 -114 0 -106 2
-115 20 -121 23 -7 27 -45 5 -45 -9 0 -15 -9 -15 -22 0 -18 2 -20 10 -8 14 22
22 6 23 -44 0 -25 4 -46 9 -46 4 0 8 -23 8 -52 0 -43 5 -57 27 -80 15 -15 33
-28 40 -28 9 0 13 -14 13 -40 0 -22 5 -40 10 -40 6 0 10 -33 10 -80 0 -64 3
-80 15 -80 11 0 15 -12 15 -45 0 -36 5 -51 25 -69 16 -15 25 -34 25 -53 0 -16
4 -33 8 -38 5 -6 17 -32 27 -60 10 -27 24 -54 32 -58 7 -4 13 -16 13 -25 0
-21 39 -47 51 -35 16 16 26 145 35 468 4 127 7 239 6 250 0 11 -1 94 -1 185
-1 91 -5 171 -9 178 -5 7 -24 21 -43 30 -29 15 -34 23 -37 58 -3 38 -1 42 32
58 18 9 41 16 50 16 13 0 16 14 16 90 l0 90 -290 0 c-251 0 -290 -2 -290 -15z"/>
<path d="M9195 10229 c-4 -6 -5 -12 -2 -15 2 -3 7 2 10 11 7 17 1 20 -8 4z"/>
<path d="M9255 10230 c3 -5 10 -10 16 -10 5 0 9 5 9 10 0 6 -7 10 -16 10 -8 0
-12 -4 -9 -10z"/>
<path d="M9605 10135 c4 -58 8 -150 10 -203 2 -53 8 -159 13 -235 5 -76 5
-178 1 -225 -7 -72 -9 -197 -7 -367 0 -16 4 -55 9 -85 5 -30 11 -170 14 -310
3 -140 10 -319 15 -396 5 -78 12 -193 15 -255 3 -63 11 -184 17 -269 14 -200
12 -550 -2 -615 -7 -27 -22 -115 -35 -195 -13 -80 -31 -181 -39 -225 -9 -44
-16 -103 -16 -132 0 -28 -4 -54 -9 -57 -5 -3 -11 -18 -14 -32 l-5 -27 67 7
c36 4 76 14 89 22 21 14 23 13 31 -8 14 -39 34 -639 33 -1018 0 -96 -5 -254
-10 -350 -13 -221 -14 -874 -2 -960 5 -36 10 -326 10 -645 0 -319 2 -629 4
-690 8 -219 21 -864 21 -1030 l0 -170 -47 3 c-52 4 -79 -5 -57 -19 8 -5 26 -9
41 -9 15 0 29 -4 32 -9 3 -5 -27 -9 -67 -10 -75 -1 -108 -8 -117 -22 -3 -5
-23 -4 -44 2 -21 6 -49 8 -62 5 -13 -4 -24 -3 -24 1 0 5 -318 8 -708 8 -460 0
-765 4 -872 12 -91 7 -241 17 -335 23 -93 6 -199 13 -235 15 -36 3 -130 9
-210 15 -164 11 -179 15 -181 38 -5 54 19 219 32 228 5 2 5 12 2 21 -3 9 0 21
8 27 34 26 37 99 30 661 -1 66 0 156 1 200 1 60 -5 105 -26 178 -14 55 -31
127 -36 160 -5 34 -19 114 -30 177 -11 64 -20 162 -20 220 -1 58 -5 125 -11
150 -5 25 -14 65 -19 90 -19 103 -105 298 -141 324 -11 7 -19 20 -17 27 2 8
-10 16 -32 20 -19 3 -28 7 -19 8 21 1 22 48 2 55 -8 3 -11 11 -8 17 8 12 -40
89 -56 89 -6 0 -9 7 -5 15 3 9 0 15 -9 15 -8 0 -15 7 -15 15 0 8 -9 20 -20 27
-11 7 -20 18 -20 25 0 6 -10 20 -23 30 -13 10 -26 26 -30 36 -4 10 -21 24 -37
30 -17 6 -30 17 -30 24 0 8 -13 13 -34 13 -37 0 -54 -14 -34 -27 7 -4 19 -16
27 -26 12 -15 12 -20 2 -26 -10 -6 -9 -12 3 -24 11 -10 12 -17 4 -19 -6 -2 5
-12 25 -22 53 -25 46 -35 -20 -29 -62 7 -102 28 -103 55 0 9 -7 23 -15 32 -8
8 -15 19 -15 24 0 5 -15 13 -34 16 -19 4 -37 13 -40 21 -3 8 -10 15 -16 15 -8
0 -8 -6 0 -20 6 -11 7 -20 3 -21 -21 -3 -59 4 -69 12 -7 5 -16 8 -22 7 -5 -2
-20 8 -33 22 -38 40 -129 29 -129 -16 0 -8 -4 -14 -10 -14 -5 0 -10 -9 -10
-20 0 -11 5 -20 11 -20 7 0 9 -12 4 -36 -6 -35 -6 -36 19 -30 19 5 26 3 26 -9
0 -8 -5 -15 -11 -15 -8 0 -8 -4 1 -14 6 -8 18 -12 27 -9 13 5 12 1 -2 -28 -10
-19 -23 -37 -29 -41 -7 -5 -3 -8 9 -9 13 0 8 -4 -12 -10 -18 -5 -33 -16 -33
-24 0 -8 -4 -15 -9 -15 -13 0 -19 46 -9 65 13 22 1 32 -20 18 -9 -6 -17 -23
-17 -39 0 -16 -6 -39 -13 -51 -7 -12 -9 -35 -6 -52 5 -26 3 -32 -17 -40 -25
-9 -35 -18 -99 -90 -41 -45 -53 -78 -25 -67 8 3 26 1 39 -6 21 -9 23 -14 15
-35 -13 -34 -12 -35 12 -23 27 15 35 6 21 -25 -7 -15 -8 -25 -2 -25 19 0 10
-22 -21 -51 -17 -16 -40 -29 -50 -29 -12 0 -23 -10 -29 -25 -8 -21 -16 -25
-48 -25 -38 0 -88 -32 -77 -49 2 -5 26 -8 52 -7 57 3 73 -2 73 -20 0 -9 -11
-14 -30 -14 -20 0 -30 -5 -30 -15 0 -9 -13 -24 -30 -33 -35 -20 -38 -32 -10
-32 13 0 20 -7 20 -19 0 -26 -20 -40 -56 -39 -16 1 -41 -5 -54 -12 -18 -9 -25
-10 -28 -1 -5 16 -34 14 -61 -5 -18 -13 -28 -14 -47 -5 -22 9 -26 8 -33 -12
-12 -32 17 -40 111 -27 59 8 83 8 93 0 20 -17 55 -2 66 27 13 34 31 24 34 -18
2 -32 -2 -37 -30 -48 -17 -6 -44 -11 -59 -11 -33 0 -61 -14 -93 -46 -13 -13
-29 -24 -36 -24 -7 0 -4 -5 5 -11 11 -6 24 -7 34 -1 26 15 54 3 54 -23 0 -24
17 -35 52 -35 25 0 52 -26 44 -45 -3 -8 -18 -15 -34 -15 -15 0 -34 -6 -40 -12
-7 -7 -34 -13 -60 -14 -26 0 -65 -9 -87 -19 -54 -25 -117 -90 -119 -123 -1
-15 -6 -37 -10 -50 -6 -17 -4 -23 6 -21 53 7 65 -20 23 -53 -14 -11 -25 -26
-25 -33 0 -22 60 -29 94 -11 27 14 56 12 56 -4 0 -14 -41 -43 -63 -45 -13 -1
-30 -14 -42 -33 -21 -33 -65 -52 -122 -52 -30 0 -38 8 -34 32 0 4 -9 10 -20
13 -31 10 -50 -21 -45 -73 3 -33 -2 -51 -19 -76 -19 -28 -20 -33 -6 -29 31 8
44 -21 33 -74 -7 -29 -7 -54 -1 -64 5 -10 9 -28 9 -42 0 -18 5 -23 23 -23 20
1 22 -3 20 -47 -1 -26 3 -45 8 -41 5 3 9 -2 9 -10 0 -19 21 -21 38 -4 20 20
15 -48 -8 -92 -11 -22 -20 -44 -20 -49 0 -12 98 -11 123 1 9 5 28 27 42 48 32
51 67 74 100 66 21 -5 25 -12 25 -41 0 -18 5 -37 10 -40 6 -4 8 -26 4 -56 -6
-45 -5 -49 15 -49 29 0 26 -19 -9 -62 l-30 -36 -47 14 c-68 21 -100 18 -118
-9 -10 -16 -33 -28 -70 -37 -43 -10 -58 -19 -68 -39 -8 -17 -22 -27 -40 -29
-37 -5 -46 22 -16 47 22 18 23 20 6 26 -10 4 -20 5 -23 2 -3 -3 -24 3 -47 14
-53 23 -201 27 -233 5 -21 -15 -58 -91 -69 -139 -3 -16 -16 -32 -31 -39 -39
-18 -53 5 -59 93 -5 82 -10 105 -33 132 -36 42 -110 0 -120 -69 -11 -76 -2
-166 17 -172 6 -2 11 -9 11 -15 0 -7 12 -20 28 -30 15 -9 42 -28 61 -42 64
-47 43 -45 810 -85 431 -22 526 -32 553 -57 26 -23 7 -33 -67 -33 -33 0 -127
-7 -210 -15 -210 -20 -431 -34 -705 -45 -129 -5 -320 -14 -425 -19 -232 -13
-771 -28 -1240 -36 -192 -3 -399 -10 -460 -15 -60 -5 -173 -12 -250 -15 -77
-3 -238 -12 -357 -20 -167 -11 -372 -14 -880 -10 -611 4 -674 3 -803 -15 -77
-10 -210 -22 -295 -25 -85 -3 -174 -8 -197 -11 l-43 -5 0 -665 0 -664 5120 0
5120 0 0 5120 0 5120 -321 0 -320 0 6 -105z m-3395 -5615 c14 -11 31 -20 38
-20 15 0 16 -22 0 -38 -9 -9 -9 -12 0 -12 14 0 82 -72 100 -106 7 -13 18 -24
24 -24 6 0 25 -16 44 -35 18 -19 36 -35 41 -35 4 0 21 -11 37 -25 16 -14 33
-25 38 -25 4 0 8 -6 8 -13 0 -8 11 -19 25 -25 14 -6 25 -16 25 -22 0 -15 -16
-12 -30 5 -7 8 -19 15 -26 15 -8 0 -22 9 -31 20 -10 11 -23 20 -30 20 -7 0
-13 4 -13 9 0 5 -20 22 -44 38 -25 15 -47 37 -50 48 -3 11 -18 26 -33 33 -15
7 -44 21 -63 32 -22 13 -38 16 -44 10 -17 -17 -26 -11 -26 15 0 14 -7 28 -15
31 -9 4 -14 11 -13 18 1 6 -3 21 -10 34 -11 18 -10 22 2 22 8 0 18 -4 21 -10
3 -5 13 -10 22 -10 14 0 14 3 -2 20 -10 11 -26 20 -36 20 -20 0 -32 13 -22 24
12 11 38 6 63 -14z m-125 -130 c3 -5 1 -10 -4 -10 -6 0 -11 5 -11 10 0 6 2 10
4 10 3 0 8 -4 11 -10z m126 -97 c29 -58 61 -93 85 -93 13 0 24 -4 24 -10 0
-26 -73 6 -121 51 -27 26 -38 79 -16 79 8 0 20 -12 28 -27z m-271 -63 c0 -5
-4 -10 -10 -10 -5 0 -10 5 -10 10 0 6 5 10 10 10 6 0 10 -4 10 -10z m466 -22
c4 -5 -4 -8 -17 -6 -12 1 -24 8 -26 15 -5 14 34 6 43 -9z m221 6 c-3 -3 -12
-4 -19 -1 -8 3 -5 6 6 6 11 1 17 -2 13 -5z m-707 -33 c0 -5 -7 -11 -14 -14
-10 -4 -13 -1 -9 9 6 15 23 19 23 5z m23 -41 c-6 -23 -49 -53 -64 -45 -5 4 2
19 18 35 34 33 53 38 46 10z m694 14 c-3 -3 -12 -4 -19 -1 -8 3 -5 6 6 6 11 1
17 -2 13 -5z m-819 -91 c-2 -10 -13 -19 -26 -21 -17 -3 -22 2 -22 17 0 16 6
21 26 21 19 0 25 -5 22 -17z m-143 -383 c-3 -5 -12 -10 -20 -10 -7 0 -15 -7
-19 -15 -3 -8 -12 -15 -21 -15 -25 0 -17 17 18 34 37 18 51 20 42 6z m25 -92
c-27 -22 -50 -23 -50 -3 0 20 63 49 69 32 2 -6 -6 -19 -19 -29z m-100 -254 c0
-8 -5 -12 -10 -9 -6 4 -8 11 -5 16 9 14 15 11 15 -7z m66 -45 c10 -17 -13 -36
-27 -22 -12 12 -4 33 11 33 5 0 12 -5 16 -11z m-253 -446 c9 -9 -33 -53 -50
-53 -7 0 -13 9 -13 20 0 27 45 51 63 33z m-293 -223 c0 -7 6 -7 19 0 28 14 31
13 31 -15 0 -13 -9 -33 -21 -43 -20 -20 -21 -20 -45 3 -21 20 -24 27 -14 44
11 22 30 28 30 11z m637 -192 c-3 -8 -6 -5 -6 6 -1 11 2 17 5 13 3 -3 4 -12 1
-19z m-209 -30 c-6 -18 -28 -21 -28 -4 0 9 7 16 16 16 9 0 14 -5 12 -12z m800
-673 c23 -36 29 -65 13 -65 -5 0 -22 -13 -38 -30 -15 -16 -33 -30 -40 -30 -17
0 -28 -49 -15 -62 11 -11 52 6 52 21 0 4 18 22 41 41 l41 32 28 -21 c16 -11
30 -16 32 -10 2 6 11 7 21 3 23 -8 19 -50 -4 -46 -10 1 -21 -9 -29 -28 -7 -16
-15 -30 -19 -30 -21 -1 -44 -34 -48 -67 -2 -21 -10 -42 -17 -48 -7 -5 -51 -10
-97 -10 -77 0 -85 2 -94 23 -5 12 -17 22 -26 22 -45 0 -73 112 -50 198 13 46
37 70 115 111 78 41 105 40 134 -4z"/>
<path d="M9325 10220 c-3 -5 -1 -10 4 -10 6 0 11 5 11 10 0 6 -2 10 -4 10 -3
0 -8 -4 -11 -10z"/>
<path d="M8725 9238 c4 -40 6 -169 6 -287 -1 -190 0 -212 14 -201 13 10 15 9
15 -10 0 -15 -5 -20 -14 -17 -15 6 -15 -2 -5 -338 l3 -110 6 125 6 125 2 -100
c2 -108 20 -169 24 -80 1 49 2 49 8 -15 4 -37 8 -52 9 -35 2 17 3 36 2 43 -2
9 6 12 21 10 13 -2 22 -9 21 -16 -4 -18 14 -14 21 5 5 13 13 5 34 -35 22 -43
24 -54 13 -61 -11 -7 -9 -11 7 -20 16 -9 24 -8 36 5 15 14 16 12 16 -25 0 -30
4 -41 15 -41 11 0 15 11 15 40 0 30 4 40 16 40 14 0 16 -8 11 -55 -3 -31 -2
-55 4 -55 9 0 13 14 10 38 -1 8 12 12 39 12 22 0 40 -4 40 -10 0 -5 18 -10 40
-10 29 0 40 -4 40 -15 0 -20 10 -19 26 3 12 16 14 16 33 -5 12 -12 21 -30 22
-40 0 -11 4 -8 11 11 8 21 13 25 19 15 16 -25 10 -49 -11 -49 -11 0 -20 -7
-20 -15 0 -11 11 -15 43 -15 55 0 71 15 51 45 -15 23 -16 83 -2 91 4 3 8 -1 8
-8 0 -17 58 -40 66 -27 3 5 -2 9 -12 9 -13 0 -15 6 -10 28 4 15 10 39 13 55 3
15 9 27 13 27 5 0 25 16 46 35 20 19 40 35 44 35 4 0 11 11 14 24 4 18 11 23
26 19 11 -3 20 0 20 6 0 6 -4 11 -8 11 -9 0 -42 70 -42 88 0 7 6 12 13 12 7 0
18 5 25 12 14 14 -2 48 -23 48 -8 0 -15 6 -15 14 0 7 -7 19 -16 27 -8 7 -13
20 -11 30 3 12 -1 15 -17 12 -19 -4 -19 -3 -5 9 30 24 33 57 8 84 -21 22 -21
25 -6 42 15 17 15 20 -3 50 -21 34 -27 82 -10 82 6 0 10 8 10 18 -1 15 -2 15
-16 -3 -15 -20 -15 -20 -32 0 -9 11 -24 19 -33 17 -9 -1 -22 4 -29 13 -11 13
-9 14 16 9 36 -7 51 -8 89 -5 30 2 30 2 5 12 -13 5 -36 9 -50 7 -23 -3 -25 0
-22 30 1 22 -2 32 -12 32 -9 0 -12 -7 -9 -21 5 -17 2 -20 -13 -17 -12 2 -19
12 -19 25 0 12 -3 24 -7 28 -4 4 -4 13 -1 21 4 10 -6 13 -46 10 -28 -1 -51 1
-51 5 0 4 -13 2 -30 -4 -16 -6 -30 -15 -30 -19 0 -4 -6 -5 -14 -2 -8 3 -17 1
-20 -5 -7 -11 -36 -4 -36 9 0 5 8 10 18 12 11 2 13 6 6 11 -7 4 -26 -6 -44
-23 -18 -17 -37 -30 -42 -30 -6 0 -7 -7 -4 -15 3 -10 -1 -18 -11 -22 -9 -4
-19 -1 -21 5 -5 17 -29 15 -36 -4 -4 -11 -17 -14 -43 -12 -34 3 -38 6 -38 31
1 15 -5 27 -11 27 -7 0 -16 9 -19 20 -3 11 -13 20 -21 20 -13 0 -19 13 -15 34
1 4 -4 15 -11 23 -7 9 -29 48 -48 87 -27 55 -40 72 -59 74 -24 4 -24 4 -16
-70z m125 -828 c0 -5 -7 -10 -16 -10 -8 0 -12 5 -9 10 3 6 10 10 16 10 5 0 9
-4 9 -10z"/>
<path d="M8260 8791 c0 -6 4 -12 8 -15 5 -3 9 1 9 9 0 8 -4 15 -9 15 -4 0 -8
-4 -8 -9z"/>
<path d="M8337 8249 c-136 -44 -247 -93 -255 -111 -2 -5 -12 -8 -23 -8 -35 0
-44 -41 -20 -95 18 -41 21 -66 20 -184 0 -75 -4 -145 -9 -156 -5 -11 -9 -16
-9 -11 -1 6 -10 0 -21 -12 -12 -13 -20 -35 -20 -57 0 -24 -5 -35 -15 -35 -16
0 -31 -43 -26 -74 1 -10 -2 -15 -7 -12 -6 4 -13 2 -17 -4 -3 -5 1 -10 9 -10 9
0 16 -4 16 -10 0 -5 -5 -10 -10 -10 -6 0 -10 -6 -8 -13 3 -14 -45 -88 -79
-122 -13 -12 -23 -27 -23 -34 0 -6 -4 -11 -10 -11 -5 0 -10 -17 -10 -37 0 -41
-19 -69 -65 -98 -17 -10 -24 -20 -17 -23 7 -2 12 -21 12 -43 0 -32 -3 -39 -20
-39 -17 0 -20 -7 -20 -40 0 -29 -4 -40 -15 -40 -11 0 -15 -11 -15 -40 l0 -40
-40 0 -40 0 0 -110 0 -110 -41 0 c-40 0 -41 1 -37 30 3 17 1 30 -4 30 -4 0 -8
-16 -8 -36 0 -29 -8 -44 -37 -73 -29 -28 -37 -44 -41 -83 -2 -26 -8 -48 -13
-48 -5 0 -9 -18 -9 -40 0 -36 -2 -40 -25 -40 l-25 0 0 -102 c0 -57 -3 -128 -7
-158 l-8 -55 -6 40 -6 40 -2 -42 c-1 -30 3 -43 13 -43 18 0 26 -84 26 -261 0
-86 4 -139 10 -139 6 0 10 -18 10 -40 0 -22 5 -40 10 -40 6 0 10 -18 10 -40
l0 -40 60 0 c49 0 62 -3 66 -17 3 -10 10 -26 15 -35 13 -25 12 -28 -11 -28
-17 0 -20 -7 -20 -40 0 -29 4 -40 15 -40 11 0 15 -11 15 -40 0 -22 -4 -40 -10
-40 -5 0 -10 -18 -10 -40 l0 -40 -42 0 c-33 0 -39 -3 -30 -12 16 -16 15 -28
-3 -28 -8 0 -15 -9 -15 -20 0 -11 -7 -20 -15 -20 -11 0 -15 -11 -15 -40 0 -22
-4 -40 -10 -40 -5 0 -10 -14 -10 -31 0 -24 4 -30 15 -25 9 3 15 0 15 -9 0 -9
-10 -15 -25 -15 -24 0 -25 -2 -25 -67 0 -99 -9 -146 -26 -132 -22 18 -28 -33
-11 -88 9 -26 18 -69 22 -95 3 -25 13 -52 20 -58 8 -7 15 -27 15 -44 1 -17 8
-49 16 -71 8 -22 20 -55 26 -74 5 -19 17 -45 25 -57 8 -13 12 -28 8 -34 -3 -5
-1 -10 4 -10 6 0 11 -10 11 -22 1 -22 1 -23 15 -4 8 11 29 56 46 100 54 139
71 177 180 391 109 214 139 297 184 510 31 148 95 389 141 530 34 105 85 220
205 462 87 177 159 324 159 327 0 3 15 38 34 78 18 40 37 84 41 98 4 14 16 43
27 64 17 33 17 38 4 33 -9 -4 -16 -2 -16 3 0 6 7 10 15 10 9 0 20 12 25 26 15
38 11 53 -5 24 -11 -19 -14 -21 -15 -7 0 9 4 25 9 35 18 36 30 68 36 100 4 17
11 32 16 32 4 0 6 13 3 28 -4 19 1 40 15 63 12 19 21 50 21 69 0 40 13 66 28
56 6 -3 8 12 6 42 l-4 47 15 -30 15 -30 -1 50 c-1 88 1 103 16 119 23 23 14
69 -75 386 -61 218 -110 409 -110 429 0 9 -6 24 -12 33 -12 15 -28 11 -161
-33z m-805 -3151 c-7 -7 -12 -8 -12 -2 0 14 12 26 19 19 2 -3 -1 -11 -7 -17z
m-32 -26 c0 -10 -41 -35 -47 -28 -9 8 17 36 33 36 8 0 14 -3 14 -8z m-120
-457 c0 -14 -2 -25 -4 -25 -2 0 -6 11 -8 25 -3 14 -1 25 3 25 5 0 9 -11 9 -25z"/>
<path d="M9460 8215 c-10 -12 -10 -15 4 -15 9 0 16 7 16 15 0 8 -2 15 -4 15
-2 0 -9 -7 -16 -15z"/>
<path d="M9092 8148 c6 -18 28 -21 28 -4 0 9 -7 16 -16 16 -9 0 -14 -5 -12
-12z"/>
<path d="M5912 7984 c-15 -31 1 -67 26 -62 19 4 26 29 18 64 -8 31 -30 31 -44
-2z"/>
<path d="M8721 7384 c0 -11 3 -14 6 -6 3 7 2 16 -1 19 -3 4 -6 -2 -5 -13z"/>
<path d="M8640 7195 c0 -8 2 -15 4 -15 2 0 6 7 10 15 3 8 1 15 -4 15 -6 0 -10
-7 -10 -15z"/>
<path d="M8615 7090 c-3 -5 1 -10 9 -10 9 0 16 5 16 10 0 6 -4 10 -9 10 -6 0
-13 -4 -16 -10z"/>
<path d="M8596 7062 c-4 -7 0 -19 8 -28 17 -17 19 -11 7 20 -5 14 -10 16 -15
8z"/>
<path d="M8590 6995 c0 -8 2 -15 4 -15 2 0 6 7 10 15 3 8 1 15 -4 15 -6 0 -10
-7 -10 -15z"/>
<path d="M8561 6904 c0 -11 3 -14 6 -6 3 7 2 16 -1 19 -3 4 -6 -2 -5 -13z"/>
<path d="M8765 6493 c-9 -26 -25 -70 -35 -98 -11 -27 -33 -95 -51 -150 -17
-55 -62 -185 -100 -289 -38 -104 -68 -190 -67 -192 8 -7 62 -7 133 1 44 5 84
9 90 9 15 1 22 66 29 271 4 105 11 257 17 339 5 82 8 151 5 153 -2 2 -11 -17
-21 -44z"/>
<path d="M7008 6104 c-9 -36 1 -683 13 -789 9 -82 15 -104 33 -120 13 -11 31
-32 40 -47 32 -49 39 -34 33 70 -9 149 -88 814 -105 877 -7 26 -9 27 -14 9z"/>
<path d="M3990 5848 c0 -3 14 -17 30 -33 17 -16 30 -24 30 -18 0 7 -13 21 -30
33 -16 12 -30 20 -30 18z"/>
<path d="M4070 5783 c0 -10 11 -29 25 -41 14 -13 29 -41 35 -62 6 -21 15 -40
21 -42 5 -2 11 -38 12 -80 1 -45 7 -82 15 -90 14 -14 17 -112 3 -104 -5 4 -5
-11 0 -34 8 -34 6 -43 -11 -60 -16 -16 -20 -17 -20 -5 0 8 -5 15 -11 15 -8 0
-9 24 -5 78 4 42 3 99 -3 127 -6 32 -6 54 0 62 16 18 0 81 -19 79 -26 -2 -41
-28 -35 -60 4 -21 3 -27 -6 -22 -6 4 -9 12 -6 17 4 5 -8 9 -25 9 -26 0 -33 -5
-41 -30 -7 -19 -18 -30 -30 -30 -25 0 -24 -26 1 -42 11 -7 20 -21 20 -30 0
-10 5 -18 10 -18 6 0 10 7 10 15 0 26 15 16 16 -10 2 -18 -3 -25 -15 -23 -10
2 -17 -5 -19 -19 -2 -13 1 -23 6 -23 6 0 9 -17 9 -38 -2 -39 -5 -42 -52 -43
-19 0 -19 -1 -2 -13 17 -13 17 -14 0 -20 -15 -6 -15 -8 -3 -17 13 -8 13 -10 0
-19 -13 -8 -12 -10 3 -10 9 0 17 -4 17 -10 0 -5 -11 -10 -25 -10 -14 0 -25 -5
-25 -11 0 -8 -4 -8 -13 -1 -28 24 -97 39 -138 32 -22 -4 -50 -5 -61 -2 -13 3
-19 1 -15 -5 4 -6 20 -13 37 -16 35 -7 38 -26 10 -52 -11 -10 -20 -24 -20 -30
0 -7 -11 -29 -25 -49 -13 -20 -20 -36 -14 -36 5 0 2 -15 -8 -32 -9 -18 -17
-41 -18 -50 -2 -22 28 -24 45 -4 6 8 18 12 26 9 9 -3 14 2 14 16 0 12 5 21 10
21 6 0 10 -4 10 -10 0 -14 52 8 70 30 14 17 80 38 80 26 0 -4 -12 -12 -27 -18
l-28 -11 40 -8 c22 -4 47 -6 57 -3 9 3 19 0 23 -6 3 -5 0 -10 -8 -10 -8 0 -22
-9 -32 -20 -18 -20 -17 -20 33 -20 98 0 53 -47 -57 -60 -53 -7 -71 -6 -93 8
-22 13 -30 14 -40 4 -10 -10 -8 -14 10 -18 12 -4 22 -10 22 -14 0 -4 22 -19
49 -33 39 -21 70 -27 151 -33 96 -7 103 -6 97 11 -6 14 -3 16 13 12 11 -3 20
-2 20 3 0 18 43 18 62 0 21 -19 17 -43 -5 -34 -7 2 -28 -9 -47 -25 -35 -29
-35 -29 -18 -58 10 -15 22 -27 28 -26 5 2 10 -12 10 -30 0 -25 -7 -37 -35 -56
-19 -13 -35 -28 -35 -33 0 -5 -7 -16 -15 -24 -21 -21 -31 -67 -17 -72 7 -2 12
-10 12 -18 0 -11 12 -7 43 14 57 39 108 63 118 56 5 -3 9 2 9 10 0 9 5 16 10
16 6 0 10 7 10 15 0 9 9 15 22 15 11 0 36 11 55 26 18 14 33 22 33 19 0 -9
-27 -35 -36 -35 -4 0 -20 -13 -36 -30 -15 -16 -32 -30 -37 -30 -5 0 -7 -8 -4
-19 3 -12 -5 -26 -23 -40 -23 -18 -26 -24 -14 -31 11 -7 11 -10 3 -11 -7 -1
-17 -3 -23 -4 -5 -1 -14 -3 -19 -4 -5 0 -12 -14 -16 -31 -4 -16 -14 -35 -23
-41 -15 -9 -15 -10 -1 -6 13 4 15 1 12 -14 -4 -15 -2 -18 11 -13 19 7 20 0 5
-29 -7 -12 -13 -36 -14 -54 -2 -29 0 -31 17 -22 11 6 22 8 25 5 5 -5 1 -16
-25 -68 -2 -3 6 -8 18 -10 20 -3 20 -4 -5 -40 -25 -37 -33 -68 -16 -68 5 0 14
7 21 15 7 9 15 13 18 10 8 -7 -29 -45 -43 -45 -7 0 -16 -7 -19 -16 -9 -23 -1
-28 14 -9 7 8 15 15 19 15 3 0 6 -43 6 -96 0 -52 2 -97 5 -99 4 -2 12 12 19
31 7 18 17 34 22 34 5 0 9 6 9 14 0 8 7 16 15 20 8 3 15 16 15 30 0 14 5 28
10 31 6 3 10 5 10 3 0 -2 7 -25 15 -52 12 -39 12 -46 1 -37 -10 8 -16 8 -26
-4 -10 -13 -9 -15 9 -15 18 0 19 -3 11 -26 -15 -39 -13 -84 5 -84 11 0 15 -11
15 -37 l0 -36 25 23 c29 27 32 16 10 -45 -20 -55 -19 -58 16 -50 l32 7 -7 -36
c-6 -31 -4 -35 10 -29 14 5 15 3 5 -15 -14 -26 -14 -89 -1 -97 5 -3 8 -21 5
-39 -3 -28 0 -35 18 -40 17 -4 19 -8 9 -18 -18 -18 -14 -30 8 -23 24 8 25 3 5
-35 -13 -25 -13 -30 -2 -30 13 0 37 39 43 69 1 7 7 18 13 24 6 6 11 25 11 43
0 17 7 37 15 44 9 7 15 20 14 29 -1 9 3 30 10 46 7 17 19 44 26 60 7 17 18 57
25 88 6 31 15 57 19 57 5 0 11 14 15 30 3 17 10 30 15 30 15 0 26 -43 12 -48
-6 -2 -8 -8 -5 -14 4 -6 1 -14 -7 -18 -10 -7 -10 -11 0 -24 17 -20 47 -21 55
-1 3 9 0 15 -9 15 -23 0 -18 17 8 24 23 6 67 65 67 90 0 7 9 25 21 40 11 14
18 30 14 36 -7 11 8 41 32 66 17 17 17 17 -5 12 -42 -11 -10 14 55 43 45 21
67 38 76 57 6 15 34 50 62 77 27 28 58 63 68 78 9 15 24 27 32 27 7 0 21 10
30 23 8 12 20 23 25 23 6 1 17 2 26 3 8 0 12 6 9 11 -4 6 1 23 11 38 10 15 17
33 16 40 -2 6 2 12 8 12 7 0 9 8 5 20 -3 11 -2 20 3 20 5 0 9 14 10 31 0 17 8
39 16 48 9 10 13 20 10 24 -4 3 1 23 10 42 21 44 15 75 -11 54 -14 -12 -15
-11 -8 10 5 17 4 22 -6 19 -13 -4 -46 19 -38 26 2 1 15 11 29 20 l25 18 -32
-7 c-21 -4 -33 -3 -33 4 0 6 6 11 14 11 7 0 19 7 26 15 11 13 8 14 -19 9 -43
-9 -39 2 10 26 22 12 39 26 37 32 -3 7 11 25 29 41 23 20 30 33 23 37 -7 4 6
7 29 6 33 0 46 5 67 27 25 27 25 29 8 42 -11 8 -29 15 -40 15 -12 0 -24 7 -28
15 -9 24 -26 18 -26 -9 0 -26 -11 -28 -48 -7 -13 7 -38 13 -55 13 -51 1 -68
14 -57 43 7 19 6 25 -8 28 -13 4 -11 5 5 6 19 1 18 5 -17 41 -21 22 -43 40
-48 40 -5 0 -15 7 -22 15 -7 8 -21 15 -31 15 -11 0 -19 6 -19 14 0 7 -14 19
-31 27 -32 13 -32 13 -8 21 13 5 31 7 41 5 16 -5 16 -3 1 19 -16 26 -56 34
-47 10 7 -19 -11 -29 -38 -20 -21 6 -21 7 -3 20 17 13 16 14 -14 27 -17 7 -28
17 -24 22 5 4 -5 5 -20 1 -32 -8 -60 13 -51 38 4 10 0 18 -11 22 -9 4 -14 13
-11 20 3 8 -1 14 -9 14 -9 0 -36 20 -62 45 -25 25 -51 45 -56 45 -7 0 -6 5 1
12 20 20 13 32 -8 13 -10 -9 -25 -14 -32 -11 -42 22 -63 38 -102 79 -24 26
-48 47 -53 47 -6 0 -18 -9 -28 -20 -10 -11 -13 -20 -8 -20 9 0 19 -18 50 -97
3 -8 -3 -13 -16 -13 -16 0 -21 6 -21 25 0 14 -5 25 -10 25 -6 0 -15 11 -20 25
-5 13 -32 39 -59 57 -27 18 -52 40 -54 49 -2 9 -19 19 -36 22 -18 4 -30 10
-27 15 5 8 -13 17 -99 47 -27 10 -62 27 -77 37 -16 11 -28 16 -28 11 1 -4 18
-20 40 -35 22 -15 48 -44 58 -65 19 -37 55 -164 48 -170 -3 -4 -25 39 -59 117
-13 30 -45 77 -70 105 -25 27 -44 52 -41 56 2 4 0 10 -6 14 -5 3 -10 -2 -10
-12z m0 -395 c0 -25 -3 -29 -10 -18 -13 20 -13 50 0 50 6 0 10 -15 10 -32z
m36 -34 c-3 -9 -6 -20 -6 -25 0 -5 -9 -9 -20 -9 -24 0 -25 4 -3 30 21 24 38
26 29 4z m-76 -34 c0 -5 -4 -10 -10 -10 -5 0 -10 5 -10 10 0 6 5 10 10 10 6 0
10 -4 10 -10z m90 -27 c0 -14 -10 -16 -34 -7 -21 8 -13 20 13 20 12 0 21 -6
21 -13z m-314 -159 c-3 -9 -6 -20 -6 -25 0 -5 -6 -9 -14 -9 -11 0 -12 5 -3 25
13 27 33 35 23 9z m-86 -104 c0 -5 -4 -10 -10 -10 -5 0 -10 5 -10 10 0 6 5 10
10 10 6 0 10 -4 10 -10z m84 -45 c-4 -8 -10 -12 -15 -9 -11 6 -2 24 11 24 5 0
7 -7 4 -15z m270 -48 c30 -16 26 -26 -9 -19 -29 5 -56 32 -32 32 8 0 26 -6 41
-13z m9 -112 c-22 -30 -25 -30 -47 -6 -18 19 -17 20 15 29 45 12 53 6 32 -23z
m337 -1149 c0 -3 -4 -8 -10 -11 -5 -3 -10 -1 -10 4 0 6 5 11 10 11 6 0 10 -2
10 -4z"/>
<path d="M4680 5562 c0 -10 22 -32 32 -32 15 0 8 15 -12 28 -11 7 -20 9 -20 4z"/>
<path d="M1396 5438 c-10 -185 -12 -638 -3 -638 4 0 7 51 7 113 1 61 3 232 6
380 3 147 4 267 1 267 -3 0 -8 -55 -11 -122z"/>
<path d="M3928 5444 c-3 -5 1 -27 10 -48 13 -34 17 -37 23 -20 4 10 8 30 8 44
-1 14 -3 19 -6 12 -4 -10 -8 -9 -17 4 -7 9 -15 13 -18 8z"/>
<path d="M1427 5367 c-8 -72 -5 -99 8 -85 3 3 5 41 3 84 l-3 79 -8 -78z"/>
<path d="M3901 5393 c-10 -19 -6 -33 10 -33 12 0 18 26 9 40 -6 10 -10 8 -19
-7z"/>
<path d="M3840 5375 c0 -8 6 -15 14 -15 8 0 16 -5 18 -12 3 -8 6 -9 11 -1 4 6
-4 18 -18 27 -22 14 -25 15 -25 1z"/>
<path d="M4990 5290 c-20 -12 -10 -19 14 -10 11 3 15 9 10 13 -6 3 -16 2 -24
-3z"/>
<path d="M3562 5178 c-4 -18 -4 -53 2 -81 9 -45 8 -51 -11 -66 -15 -13 -19
-25 -16 -45 3 -15 11 -25 17 -23 11 3 17 30 31 127 11 79 16 95 24 82 6 -10
11 -9 21 3 7 8 22 15 34 16 20 0 21 1 1 9 -11 5 -37 9 -57 9 -34 1 -38 -2 -46
-31z"/>
<path d="M1420 5029 c0 -5 5 -7 10 -4 6 3 10 8 10 11 0 2 -4 4 -10 4 -5 0 -10
-5 -10 -11z"/>
<path d="M5258 4983 c7 -3 16 -2 19 1 4 3 -2 6 -13 5 -11 0 -14 -3 -6 -6z"/>
<path d="M7327 4912 c-10 -11 -17 -36 -17 -62 0 -37 2 -41 15 -30 12 10 15 10
15 -4 0 -9 5 -16 10 -16 6 0 10 28 10 65 0 68 -6 77 -33 47z"/>
<path d="M3422 4828 c-15 -15 -16 -41 0 -36 13 5 31 48 20 48 -5 0 -13 -5 -20
-12z"/>
<path d="M3521 4776 c-30 -17 -16 -26 48 -30 27 -2 54 -7 59 -10 6 -3 13 -2
17 4 3 5 -7 13 -22 16 -25 7 -26 8 -8 16 14 5 9 6 -13 2 -18 -3 -38 -1 -45 4
-8 7 -20 6 -36 -2z"/>
<path d="M6130 4750 c0 -15 21 -23 32 -12 6 6 2 11 -11 15 -12 3 -21 1 -21 -3z"/>
<path d="M5650 4740 l-25 -8 28 -1 c15 -1 27 4 27 9 0 6 -1 10 -2 9 -2 -1 -14
-5 -28 -9z"/>
<path d="M5447 4720 c-22 -26 -21 -30 5 -25 31 6 41 20 25 33 -10 9 -17 7 -30
-8z"/>
<path d="M5690 4730 c0 -5 9 -10 19 -10 11 0 23 5 26 10 4 6 -5 10 -19 10 -14
0 -26 -4 -26 -10z"/>
<path d="M6180 4720 c-12 -8 -11 -10 8 -10 12 0 22 5 22 10 0 13 -11 13 -30 0z"/>
<path d="M3520 4716 c0 -2 9 -6 20 -9 11 -3 20 -1 20 4 0 5 -9 9 -20 9 -11 0
-20 -2 -20 -4z"/>
<path d="M3575 4710 c-4 -6 5 -10 20 -10 15 0 24 4 20 10 -3 6 -12 10 -20 10
-8 0 -17 -4 -20 -10z"/>
<path d="M5755 4713 c-16 -3 -34 -9 -39 -14 -6 -5 -16 -9 -23 -9 -13 0 -47
-28 -117 -97 -24 -24 -54 -47 -67 -52 -24 -10 -24 -10 4 -10 16 -1 26 -5 22
-11 -4 -6 -11 -8 -16 -5 -10 7 -79 -62 -79 -79 0 -6 -12 -19 -27 -28 -16 -10
-22 -18 -15 -18 7 0 11 -4 7 -9 -14 -24 24 -22 120 6 17 5 18 3 8 -9 -9 -10
-9 -18 -2 -25 12 -12 49 -6 49 8 0 5 -7 6 -15 3 -8 -4 -15 -1 -15 5 0 6 12 16
28 21 43 16 72 33 67 39 -3 2 -11 -1 -17 -7 -14 -14 -48 -16 -48 -3 0 5 8 11
18 15 37 13 77 44 74 58 -1 9 7 18 20 22 29 8 94 63 85 72 -4 4 -13 1 -22 -6
-31 -26 -29 3 3 31 17 16 32 31 32 34 0 3 0 10 0 15 0 6 8 10 18 11 11 1 9 4
-8 9 -14 4 -19 8 -12 9 6 1 12 8 12 16 0 8 -3 14 -7 14 -5 -1 -21 -4 -38 -6z
m-54 -164 c-13 -11 -26 -17 -29 -14 -7 6 29 34 43 34 6 0 -1 -9 -14 -20z"/>
<path d="M5585 4674 c-22 -14 -46 -27 -52 -30 -23 -11 -14 -21 19 -22 35 -1
88 31 88 53 0 24 -14 23 -55 -1z"/>
<path d="M6270 4669 c0 -5 5 -7 10 -4 6 3 10 8 10 11 0 2 -4 4 -10 4 -5 0 -10
-5 -10 -11z"/>
<path d="M5495 4650 c3 -5 8 -10 11 -10 2 0 4 5 4 10 0 6 -5 10 -11 10 -5 0
-7 -4 -4 -10z"/>
<path d="M6335 4643 c2 -10 4 -20 4 -23 2 -7 21 23 21 33 0 4 -6 7 -14 7 -8 0
-13 -8 -11 -17z"/>
<path d="M5526 4595 c-7 -20 9 -28 23 -11 9 10 8 15 -3 19 -8 3 -17 -1 -20 -8z"/>
<path d="M5790 4435 c-7 -9 -10 -18 -7 -21 10 -11 37 5 37 21 0 19 -14 19 -30
0z"/>
<path d="M5616 4383 c-13 -14 -5 -23 22 -24 16 -1 20 -3 10 -6 -10 -2 -18 -11
-18 -19 0 -11 -4 -12 -19 -4 -27 14 -34 13 -27 -6 4 -9 1 -23 -5 -31 -23 -27
-1 -23 57 12 62 37 84 62 62 69 -31 10 -76 15 -82 9z"/>
<path d="M5730 4338 c-12 -22 -12 -22 6 -6 10 10 15 20 12 24 -4 3 -12 -5 -18
-18z"/>
<path d="M5410 4334 c-26 -11 -30 -17 -21 -28 9 -11 9 -15 -1 -19 -7 -2 -10
-8 -6 -12 5 -5 16 -1 26 8 10 10 23 17 29 17 5 0 20 11 32 24 l22 24 -24 0
c-13 0 -39 -7 -57 -14z"/>
<path d="M5735 4309 c-10 -15 3 -25 16 -12 7 7 7 13 1 17 -6 3 -14 1 -17 -5z"/>
<path d="M5498 4283 c7 -3 16 -2 19 1 4 3 -2 6 -13 5 -11 0 -14 -3 -6 -6z"/>
<path d="M5680 4280 c0 -5 4 -10 9 -10 6 0 13 5 16 10 3 6 -1 10 -9 10 -9 0
-16 -4 -16 -10z"/>
<path d="M5630 4265 c0 -8 -10 -20 -22 -26 -13 -6 -30 -18 -38 -26 -8 -8 -31
-24 -50 -35 -32 -19 -33 -22 -15 -28 14 -6 25 -2 36 13 10 12 23 18 33 14 10
-4 24 1 34 11 25 27 52 78 45 86 -11 11 -23 7 -23 -9z m-30 -65 c0 -5 -4 -10
-10 -10 -5 0 -10 5 -10 10 0 6 5 10 10 10 6 0 10 -4 10 -10z"/>
<path d="M5760 4259 c0 -5 5 -7 10 -4 6 3 10 8 10 11 0 2 -4 4 -10 4 -5 0 -10
-5 -10 -11z"/>
<path d="M5350 4230 c-13 -8 -12 -10 3 -10 9 0 17 5 17 10 0 12 -1 12 -20 0z"/>
<path d="M5677 4213 c-4 -3 -7 -11 -7 -17 0 -6 5 -5 12 2 6 6 9 14 7 17 -3 3
-9 2 -12 -2z"/>
<path d="M5640 4189 c0 -5 5 -7 10 -4 6 3 10 8 10 11 0 2 -4 4 -10 4 -5 0 -10
-5 -10 -11z"/>
<path d="M5583 4153 c-12 -2 -27 -11 -33 -19 -7 -8 -19 -14 -27 -14 -8 0 -11
-5 -7 -11 10 -16 74 -3 90 18 15 20 18 34 7 32 -5 -1 -18 -4 -30 -6z"/>
<path d="M5632 4120 c-15 -24 0 -27 22 -4 19 19 20 24 3 24 -7 0 -18 -9 -25
-20z"/>
<path d="M5070 4095 c-7 -8 -8 -15 -2 -15 5 0 15 7 22 15 7 8 8 15 2 15 -5 0
-15 -7 -22 -15z"/>
<path d="M5030 4050 c-8 -5 -11 -10 -7 -10 5 0 -1 -14 -13 -31 -12 -16 -19
-33 -16 -36 8 -8 53 16 84 45 23 20 23 22 5 22 -10 0 -23 4 -29 10 -6 6 -15 6
-24 0z"/>
<path d="M5251 3990 c-13 -11 -30 -20 -37 -20 -10 0 -13 -7 -8 -25 4 -15 2
-25 -5 -25 -6 0 -11 -5 -11 -10 0 -16 38 12 43 32 3 10 19 23 37 29 17 6 29
16 27 22 -6 18 -21 17 -46 -3z"/>
<path d="M5088 3973 c7 -3 16 -2 19 1 4 3 -2 6 -13 5 -11 0 -14 -3 -6 -6z"/>
<path d="M4887 3936 c-4 -10 -1 -13 9 -9 15 6 19 23 5 23 -5 0 -11 -7 -14 -14z"/>
<path d="M5634 3936 c-11 -9 -29 -12 -44 -9 -14 3 -22 2 -18 -2 4 -4 1 -20 -8
-36 -13 -25 -13 -29 0 -29 8 0 24 14 36 30 12 17 25 28 28 26 11 -6 52 12 52
24 0 14 -23 12 -46 -4z"/>
<path d="M5432 3889 c-7 -12 -11 -24 -7 -27 9 -9 40 13 43 32 5 23 -21 20 -36
-5z"/>
<path d="M5112 3888 c-7 -7 -12 -18 -12 -25 0 -16 -16 -17 -26 -1 -5 8 -11 6
-20 -7 -7 -10 -23 -23 -35 -29 -12 -6 -24 -17 -27 -23 -6 -20 22 -15 48 7 13
11 28 20 35 20 12 0 65 51 65 63 0 11 -15 8 -28 -5z"/>
<path d="M5350 3857 c-37 -8 -52 -18 -82 -57 -38 -49 -48 -80 -25 -80 36 0 85
22 90 40 3 13 14 20 31 20 38 0 76 21 76 42 0 22 -13 23 -30 3 -7 -8 -16 -15
-21 -15 -15 0 -10 22 8 35 24 17 4 22 -47 12z"/>
<path d="M5475 3840 c-3 -5 -2 -10 4 -10 5 0 13 5 16 10 3 6 2 10 -4 10 -5 0
-13 -4 -16 -10z"/>
<path d="M4960 3780 c0 -5 5 -10 10 -10 6 0 10 5 10 10 0 6 -4 10 -10 10 -5 0
-10 -4 -10 -10z"/>
<path d="M4210 3750 c0 -5 7 -10 15 -10 8 0 15 5 15 10 0 6 -7 10 -15 10 -8 0
-15 -4 -15 -10z"/>
<path d="M4985 3750 c-3 -5 -2 -10 4 -10 5 0 13 5 16 10 3 6 2 10 -4 10 -5 0
-13 -4 -16 -10z"/>
<path d="M5545 3690 c-3 -5 -1 -10 4 -10 6 0 11 5 11 10 0 6 -2 10 -4 10 -3 0
-8 -4 -11 -10z"/>
<path d="M5305 3420 c-3 -5 -1 -10 4 -10 6 0 11 5 11 10 0 6 -2 10 -4 10 -3 0
-8 -4 -11 -10z"/>
<path d="M5247 3403 c-15 -15 -7 -43 13 -43 15 0 20 7 20 25 0 24 -18 34 -33
18z"/>
<path d="M4506 3233 c-20 -26 -28 -73 -14 -73 11 0 26 33 21 46 -2 6 3 17 12
24 8 7 15 16 15 21 0 16 -15 9 -34 -18z"/>
<path d="M5040 3055 c-11 -13 -8 -15 14 -15 16 0 26 5 26 15 0 8 -6 15 -14 15
-7 0 -19 -7 -26 -15z"/>
<path d="M8733 2945 c0 -38 -5 -51 -25 -68 -14 -12 -32 -43 -39 -69 -8 -30
-16 -43 -21 -35 -5 7 -8 -1 -8 -20 0 -18 -4 -33 -9 -33 -12 0 -71 -59 -71 -71
0 -5 -4 -9 -9 -9 -5 0 -17 -24 -26 -52 -10 -29 -24 -60 -31 -69 -8 -8 -14 -20
-14 -25 0 -6 -11 -25 -25 -44 -14 -19 -25 -42 -25 -51 0 -10 -10 -21 -22 -25
-13 -4 -34 -15 -47 -25 -13 -10 -40 -23 -60 -29 -46 -13 -267 -48 -306 -49
-16 0 -79 -7 -139 -15 -60 -9 -130 -16 -155 -16 -73 0 -117 -16 -129 -48 -30
-76 -34 -108 -23 -180 6 -39 11 -96 11 -127 0 -48 3 -57 23 -64 12 -5 108 -16
212 -25 105 -9 233 -21 285 -26 91 -10 319 -31 540 -50 131 -11 370 -21 350
-14 -8 2 -51 8 -95 12 l-80 7 -2 75 c-15 532 -43 1174 -52 1183 -4 4 -8 -13
-8 -38z"/>
<path d="M4923 2965 c-3 -9 -3 -19 1 -22 7 -7 36 16 36 28 0 15 -30 10 -37 -6z"/>
<path d="M0 2307 l0 -667 93 6 c50 3 162 12 247 19 85 8 198 17 250 20 52 4
115 8 140 10 25 2 128 7 230 10 102 3 295 13 430 21 135 7 416 21 625 29 654
26 1175 53 1184 61 2 2 -138 3 -310 4 -331 0 -520 10 -543 29 -8 6 -27 11 -42
9 -16 -1 -39 4 -51 10 -12 7 -31 12 -42 12 -12 0 -26 9 -33 19 -6 10 -17 17
-23 15 -12 -5 -66 13 -75 24 -8 11 -67 42 -79 42 -6 0 -38 18 -72 40 -34 22
-72 40 -85 40 -13 0 -28 9 -34 20 -6 11 -19 20 -29 20 -10 0 -21 9 -24 20 -3
11 -9 20 -14 18 -9 -2 -248 12 -291 17 -15 2 -65 6 -112 10 -47 3 -134 12
-195 19 -113 13 -113 16 5 31 25 3 58 14 74 25 l30 19 -27 6 c-35 9 -35 33 1
41 15 4 32 14 39 23 7 9 13 11 13 5 0 -7 13 -14 30 -16 28 -4 29 -3 14 13 -14
16 -15 50 -9 323 7 296 7 306 -11 306 -20 -1 -76 -29 -58 -30 12 0 18 -227 8
-293 l-6 -37 -25 20 c-14 11 -32 20 -39 20 -8 0 -14 8 -14 17 0 9 -3 13 -7 10
-3 -4 -12 1 -18 10 -11 14 -16 15 -28 5 -13 -11 -16 -8 -22 17 -7 35 -23 50
-50 50 -32 -1 -99 13 -112 23 -6 5 -10 15 -7 23 6 16 -9 27 -45 31 -44 7 -56
9 -68 17 -8 5 -13 4 -13 -3 0 -5 -15 0 -34 12 -19 13 -32 26 -30 30 3 5 1 8
-5 8 -5 0 -11 -5 -13 -11 -3 -9 -25 -9 -83 -2 l-80 10 74 2 c41 0 72 4 68 7
-12 12 -127 14 -150 3 -22 -12 -22 -12 -3 10 11 12 25 20 31 17 7 -2 18 0 26
4 9 6 -4 9 -36 10 -75 1 -94 4 -89 12 3 4 -39 8 -93 8 -54 0 -162 3 -240 7
l-143 6 0 -666z m1040 403 c0 -5 -4 -10 -9 -10 -6 0 -13 5 -16 10 -3 6 1 10 9
10 9 0 16 -4 16 -10z"/>
<path d="M648 2933 c6 -2 18 -2 25 0 6 3 1 5 -13 5 -14 0 -19 -2 -12 -5z"/>
<path d="M1611 2730 c-1 -41 -4 -132 -8 -202 -4 -84 -3 -128 4 -128 14 0 27
348 14 380 -8 20 -10 10 -10 -50z"/>
<path d="M4947 2651 c-4 -17 -3 -21 5 -13 5 5 8 16 6 23 -3 8 -7 3 -11 -10z"/>
<path d="M5024 2376 c-4 -9 -2 -27 4 -39 10 -22 10 -21 17 6 9 33 -10 62 -21
33z"/>
<path d="M4960 2261 c-17 -32 -12 -61 9 -61 26 0 34 14 26 50 -8 35 -20 38
-35 11z"/>
<path d="M5065 2242 c3 -12 1 -30 -5 -42 -9 -16 -8 -20 5 -20 9 0 16 10 17 25
0 14 1 30 2 37 1 6 -5 13 -13 16 -9 3 -11 -1 -6 -16z"/>
<path d="M3288 1823 c7 -3 16 -2 19 1 4 3 -2 6 -13 5 -11 0 -14 -3 -6 -6z"/>
</g>
</svg>
